<svg xmlns="http://www.w3.org/2000/svg" viewBox="0 0 512 512">
  <defs>
    <linearGradient id="bgGrad" x1="0%" y1="0%" x2="100%" y2="100%">
      <stop offset="0%" style="stop-color:#FDFBF7"/>
      <stop offset="100%" style="stop-color:#F5F3EF"/>
    </linearGradient>
    <linearGradient id="accentGrad" x1="0%" y1="0%" x2="100%" y2="100%">
      <stop offset="0%" style="stop-color:#C4956A"/>
      <stop offset="100%" style="stop-color:#B5864D"/>
    </linearGradient>
  </defs>

  <!-- Background circle -->
  <circle cx="256" cy="256" r="240" fill="url(#bgGrad)" stroke="#E8E4DC" stroke-width="4"/>

  <!-- Book shape -->
  <path d="M128 120 L256 140 L384 120 L384 360 L256 380 L128 360 Z"
        fill="#FFFFFF" stroke="#1A1A1A" stroke-width="3"/>

  <!-- Book spine -->
  <path d="M256 140 L256 380" stroke="#E8E4DC" stroke-width="2"/>

  <!-- Book pages (left) -->
  <path d="M140 135 L248 152 L248 368 L140 352 Z" fill="#FDFBF7"/>
  <line x1="155" y1="175" x2="235" y2="185" stroke="#D4CFC4" stroke-width="2"/>
  <line x1="155" y1="205" x2="235" y2="215" stroke="#D4CFC4" stroke-width="2"/>
  <line x1="155" y1="235" x2="235" y2="245" stroke="#D4CFC4" stroke-width="2"/>
  <line x1="155" y1="265" x2="200" y2="272" stroke="#D4CFC4" stroke-width="2"/>

  <!-- Knowledge graph nodes -->
  <circle cx="320" cy="200" r="18" fill="url(#accentGrad)" stroke="#1A1A1A" stroke-width="2"/>
  <circle cx="355" cy="260" r="14" fill="#7A9987" stroke="#1A1A1A" stroke-width="2"/>
  <circle cx="300" cy="300" r="16" fill="#2563EB" stroke="#1A1A1A" stroke-width="2"/>

  <!-- Connections -->
  <line x1="320" y1="218" x2="355" y2="246" stroke="#1A1A1A" stroke-width="2" stroke-dasharray="4,3"/>
  <line x1="320" y1="218" x2="300" y2="284" stroke="#1A1A1A" stroke-width="2" stroke-dasharray="4,3"/>
  <line x1="341" y1="260" x2="316" y2="300" stroke="#1A1A1A" stroke-width="2" stroke-dasharray="4,3"/>
</svg>
